External Loads File
version=1
nRows=31
nColumns=13
Range=5.000000e-03-10 seconds
endheader
time 	forceRightX 	forceRightY 	forceRightZ 	pointRightX 	pointRightY 	pointRightZ 	forceLeftX 	forceLeftY 	forceLeftZ 	pointLeftX 	pointLeftY 	pointLeftZ 		
5.005000 -98.964344 -67.995767 -0.000000 0.334516 0.513529 -0.198329 123.487755 442.894586 -0.000000 0.320061 0.148262 -0.443948
5.010000 -97.441865 -55.199614 -0.000000 0.343839 0.513611 -0.198296 125.731838 404.466209 -0.000000 0.310214 0.148648 -0.443748
5.015000 -94.139507 -39.504422 -0.000000 0.352817 0.513039 -0.198385 125.862591 365.085837 -0.000000 0.300465 0.149798 -0.443576
5.020000 -89.608420 -20.881031 -0.000000 0.361328 0.511701 -0.198293 124.183217 325.325483 -0.000000 0.290818 0.151682 -0.443403
5.025000 -84.518239 0.929193 -0.000000 0.369552 0.509669 -0.197993 121.309627 285.666628 -0.000000 0.281189 0.154158 -0.443196
5.030000 -79.489602 26.204288 -0.000000 0.377354 0.506601 -0.197763 117.502447 246.667549 -0.000000 0.271687 0.157345 -0.442946
5.035000 -75.017302 55.295420 -0.000000 0.384756 0.502452 -0.197554 113.138453 208.703139 -0.000000 0.262279 0.161297 -0.442730
5.040000 -71.547904 88.313267 -0.000000 0.391537 0.497293 -0.197093 108.139588 172.266947 -0.000000 0.253278 0.165959 -0.442509
5.045000 -69.124037 125.418900 -0.000000 0.398193 0.490820 -0.196318 103.041027 137.454557 -0.000000 0.244435 0.171245 -0.442155
5.050000 -68.309813 166.095710 -0.000000 0.404222 0.484482 -0.195962 97.408317 105.080552 -0.000000 0.235991 0.177220 -0.441798
5.055000 -69.156607 209.916162 -0.000000 0.409865 0.477472 -0.195557 91.650588 75.513007 -0.000000 0.227869 0.183750 -0.441674
5.060000 -71.694186 256.100617 -0.000000 0.415266 0.469738 -0.195286 85.948572 49.211708 -0.000000 0.219955 0.190711 -0.440871
5.065000 -76.130352 303.493910 -0.000000 0.420767 0.461339 -0.195223 80.359981 26.604188 -0.000000 0.212781 0.198012 -0.440727
5.070000 -82.082369 350.784692 -0.000000 0.426155 0.452215 -0.195060 74.956273 7.828880 -0.000000 0.206198 0.205938 -0.440772
5.075000 -88.628424 396.534929 -0.000000 0.431861 0.442442 -0.195113 69.726709 -7.114492 -0.000000 0.200031 0.214197 -0.440856
5.080000 -96.547722 438.873898 -0.000000 0.436938 0.432586 -0.194713 64.739547 -17.987108 -0.000000 0.194450 0.222693 -0.440922
5.085000 -104.923936 476.524064 -0.000000 0.441937 0.422881 -0.195180 60.161709 -24.995305 -0.000000 0.189491 0.231582 -0.441085
5.090000 -112.961678 508.633049 -0.000000 0.446611 0.412702 -0.195815 56.189057 -28.466415 -0.000000 0.185063 0.240605 -0.441349
5.095000 -120.669179 534.779641 -0.000000 0.450827 0.402056 -0.195673 53.052620 -28.875782 -0.000000 0.181233 0.249604 -0.441622
5.100000 -126.887030 555.408938 -0.000000 0.454732 0.391395 -0.195436 50.848947 -27.016378 -0.000000 0.178027 0.259535 -0.441724
5.105000 -132.755408 570.897641 -0.000000 0.458414 0.380799 -0.195664 49.705054 -23.540183 -0.000000 0.175352 0.269591 -0.442007
5.110000 -137.823623 582.220213 -0.000000 0.461659 0.370171 -0.195691 49.567008 -19.242474 -0.000000 0.173292 0.280021 -0.442193
5.115000 -141.480200 590.488445 -0.000000 0.464448 0.359161 -0.195355 50.276145 -14.825564 -0.000000 0.171653 0.290622 -0.442123
5.120000 -144.251253 596.530092 -0.000000 0.466797 0.348159 -0.195160 51.595956 -10.729401 -0.000000 0.170680 0.301405 -0.442087
5.125000 -146.288453 601.109691 -0.000000 0.468571 0.337314 -0.195107 53.185483 -7.258545 -0.000000 0.170365 0.312245 -0.442256
5.130000 -146.678160 605.045379 -0.000000 0.469732 0.326486 -0.195088 54.672798 -4.684912 -0.000000 0.170509 0.323213 -0.442242
5.135000 -144.919406 608.896246 -0.000000 0.470372 0.315630 -0.194804 55.733289 -3.153167 -0.000000 0.171339 0.334327 -0.442246
5.140000 -141.210068 612.907345 -0.000000 0.470346 0.304858 -0.194556 56.096482 -2.664142 -0.000000 0.172834 0.345437 -0.442186
5.145000 -135.257790 617.269894 -0.000000 0.469575 0.294197 -0.194508 55.582143 -3.199715 -0.000000 0.174972 0.356585 -0.442316
5.150000 -127.035832 621.970190 -0.000000 0.468073 0.283618 -0.194193 54.152797 -4.685595 -0.000000 0.177617 0.367726 -0.442085
5.155000 -116.516446 626.912819 -0.000000 0.465871 0.273089 -0.193812 51.883748 -7.049520 -0.000000 0.180990 0.378776 -0.441998
